<?xml version="1.0" encoding="utf-8"?>
<!-- Generator: Adobe Illustrator 24.0.1, SVG Export Plug-In . SVG Version: 6.00 Build 0)  -->
<svg version="1.1" id="Layer_1" xmlns="http://www.w3.org/2000/svg" xmlns:xlink="http://www.w3.org/1999/xlink" x="0px" y="0px"
	 viewBox="0 0 1920 1080" style="enable-background:new 0 0 1920 1080;" xml:space="preserve">
<style type="text/css">
	.st0{fill:#2D2D2D;}
</style>
<path class="st0" d="M813.11,529.03v63.45h-23.69v-54.57c0-20.73-7.19-28.34-22-28.34c-15.23,0-23.27,10.79-23.27,30.24v52.66
	h-23.69v-54.57c0-20.73-6.98-28.34-21.57-28.34c-16.07,0-23.69,10.79-23.69,30.24v52.66h-23.69V489.27h23.69v15.23h0.42
	c8.46-11.42,19.88-16.71,32.57-16.71c15.65,0,26.44,6.98,31.94,19.46c10.15-12.9,22.63-19.46,36.59-19.46
	C800.42,487.79,813.11,503.44,813.11,529.03z M832.3,592.49h23.69V489.27H832.3V592.49z M844.15,442.53
	c-8.88,0-15.86,7.19-15.86,15.65c0,8.67,6.98,15.86,15.86,15.86c8.88,0,16.08-7.19,16.08-15.86
	C860.22,449.72,853.03,442.53,844.15,442.53z M935.56,487.79c-13.54,0-25.8,5.08-34.47,16.71h-0.42v-15.23h-23.69v103.22h23.69
	v-52.66c0-19.46,8.25-30.24,25.59-30.24c15.86,0,23.48,7.61,23.48,28.34v54.57h23.69v-63.45
	C973.42,503.44,960.3,487.79,935.56,487.79z M1068.45,444.64h23.48v147.84h-22.63v-14.81h-0.42c-7.4,11-18.61,16.5-33.42,16.5
	c-28.55,0-50.13-20.94-50.13-52.88c0-31.09,21.57-53.51,49.92-53.51c13.54,0,25.17,4.44,32.78,14.17h0.42V444.64z M1069.29,540.88
	c0-20.09-11.21-31.73-30.03-31.73c-16.5,0-29.82,12.27-29.82,31.73c0,18.61,12.27,31.73,29.61,31.73
	C1057.03,572.61,1069.29,562.03,1069.29,540.88z M1218.18,541.3c0,31.94-21.57,52.88-50.13,52.88c-14.8,0-26.01-5.5-33.42-16.5
	h-0.42v14.81h-22.63V444.64h23.48v57.32h0.42c7.61-9.73,19.25-14.17,32.78-14.17C1196.61,487.79,1218.18,510.21,1218.18,541.3z
	 M1194.07,540.88c0-19.46-13.33-31.73-29.82-31.73c-18.82,0-30.04,11.63-30.04,31.73c0,21.15,12.27,31.73,30.25,31.73
	C1181.81,572.61,1194.07,559.49,1194.07,540.88z M1335.72,541.13c-0.02,31.28-22.43,53.05-54.15,53.05
	c-32.57,0-54.15-22.84-54.15-53.09c0-30.35,21.43-53.14,53.81-53.3C1311.17,487.65,1335.74,511.2,1335.72,541.13z M1311.61,541.09
	c0-19.67-13.11-32.99-30.03-32.99c-17.98,0-30.03,14.38-30.03,32.99c0,18.19,12.27,32.57,30.03,32.57
	C1298.28,573.66,1311.61,560.34,1311.61,541.09z M1428.09,444.64h23.48v147.84h-22.63v-14.81h-0.42c-7.4,11-18.61,16.5-33.42,16.5
	c-28.55,0-50.13-20.94-50.13-52.88c0-31.09,21.57-53.51,49.92-53.51c13.54,0,25.17,4.44,32.78,14.17h0.42V444.64z M1428.93,540.88
	c0-20.09-11.21-31.73-30.03-31.73c-16.5,0-29.82,12.27-29.82,31.73c0,18.61,12.27,31.73,29.61,31.73
	C1416.67,572.61,1428.93,562.03,1428.93,540.88z M1539.81,489.27v49.28c0,19.46-8.04,30.24-24.96,30.24
	c-15.44,0-22.84-7.61-22.84-28.34v-51.18h-23.69v60.49c0,25.59,12.9,41.24,37.22,41.24c13.32,0,26.23-5.5,33.84-16.29h0.42v8.46
	c0,18.19-10.36,29.19-30.67,29.19c-14.8,0-23.9-4.23-35.11-10.15l-5.71,20.73c11.63,6.98,26.65,10.79,42.09,10.79
	c38.49,0,53.09-23.48,53.09-55.84v-88.62H1539.81z M541.09,446.07c0,0,4.86,3.18,11.04,8.91c1.64,1.47,4.65,4.29,6.94,7.13
	l1.56,1.96c0.12,0.36-0.11,0.22-0.49-0.12c-1.33-1.23-2.91-2.69-4.69-4.46c-1.23-1.04-1.47-0.51,0.09,1.25l4.53,4.73
	c8.61,9.97,15.82,21.17,21.29,33.24c0.82,1.95,1.53,3.61,2.14,5.01c0.01,0.02,2.1,4.99,3.58,8.88c1.77,3.46,1.77,1.26,0.83-4.48
	c0,0-0.68-3.27-1.6-6.52c-0.03-0.12-1.2-3.74-1.75-4.95c-2.98-7.78-5.57-13.39-5.94-14.2c-0.38-0.73-0.63-0.31,0,1.53l0.1,0.26
	c0.82,2.01,1.6,4.09,2.37,6.16c0.47,1.05,0.21,1.08-0.07,0.53c-0.53-1.2-1.07-2.4-1.56-3.62c-9.73-20.75-26.26-35.09-39.67-43.4
	C536.79,442.16,537.76,443.72,541.09,446.07z M575.76,489.78c12.72,23.62,17.97,52.21,12.4,81.49c-1.91,9.39-5.43,19.94-9.89,28.62
	c-0.52,0.96-0.95,0.86-0.21-0.9c0.86-1.76,1.67-3.59,2.37-5.59c2.27-6.16,4.31-12.91,5.67-19.42c0.37-2.36-0.02-2.17-0.31-1.06
	c-0.39,1.55-0.82,3.1-1.27,4.65l-0.02,0.04c-0.34,1.14-0.69,2.28-1.05,3.41l-0.74,2.25c-2.05,7.25-4.72,14.26-8,20.88
	c-0.86,1.78-2.05,2.67,0.58-3.53c0.96-2.37,3.17-6.91,5.52-13.95c2.35-7.04,2.74-8.41,2.96-9.91c0.31-2.25,0.21-3.31-0.19-1.77
	c-4.69,18.74-11.96,32.78-23.53,45.9c-0.1,0.12-0.16,0.19-0.15,0.17c-2.8,3.21-3.4,3.64-4.86,4.95c-0.53,0.47-0.87-0.03-0.08-0.9
	c0.96-1.06,1.19-1.32,2.96-3.48c0.7-0.86,1.12-1.45,2.04-2.62c11.73-15.03,19.64-31.7,23.78-51.87c1.19-7.65-0.25-6.62-0.92-3.06
	c-1.94,12.15-6.79,26.31-12.34,36.64c-3.59,7.03-7.27,12.37-9.32,15.11c-0.61,0.85-1.14,1.49-1.55,1.96
	c-0.24,0.28-0.6,0.66-0.6,0.66c-0.34,0.34-0.34,0.22-0.08-0.24l2.54-3.82c1.99-3.17,2.82-4.12,5.35-9.43
	c2.14-4.9,5.42-12.46,6.49-15.32c0.09-0.23,0.17-0.45,0.17-0.45c1.07-2.95,1.8-5.18,1.97-5.79c1.32-4.49,4.78-15.3,4.93-31.8
	c0,0-0.09-5.4-0.15-7.32c0,0.04,0,0.07,0,0.11c-0.04-1.71-0.1-2.82-0.16-3.51c-0.15-2.2-0.39-4.41-0.75-6.61
	c-0.98-5.57-2.65-11.8-4.9-17.96c-0.25-0.42-0.27-0.14-0.16,0.2c2.86,8.81,4.47,18.08,5.12,27.5c0.26,5.61,0.08,9.22,0.08,9.22
	c-0.01,0.6-0.06,2.29-0.06,2.41c-0.93,18.15-6.71,34.52-12.05,45.37l-0.02,0.04c-11.03,21.96-37.19,44.07-65.36,51.29l-2.89,0.62
	c-1.41,0.3-1.17-0.39,0.59-0.98c0,0,1.93-0.54,1.93-0.54c24.58-7.49,47.91-25.67,59.58-46.71c0.77-1.39,1.51-2.79,2.22-4.21
	c0.21-0.36,0.21-0.78-0.12-0.3c0,0-11,18.58-26.32,29.79c-9.96,7.28-20.26,13.24-31.97,17.28c-1.66,0.05,1.5-1.24,2.4-1.63
	c6.8-2.98,13.31-6.63,19.4-10.88c2.19-1.53,4.4-3.09,6.56-4.72c3.76-2.84,7.38-5.88,10.55-9.28c5.47-5.87,9.9-12.61,14.08-19.43
	c0.33-0.53,0.65-1.06,0.97-1.59c6.37-10.5,10.96-22.16,13.44-34.15c0.29-1.44,0.58-3.06,0.83-4.68c0.39-2.62,0.74-5.61,0.98-7.84
	l0.07-0.85c0.22-2.62,0.31-5.26,0.31-7.86c-0.44-6.18-1.6-4.42-1.64-3.38c0.52,16.27-2.89,33.03-10.03,48.04
	c-2.05,4.29-3.03,5.85-3.03,5.85c-1.06,1.54-1.67,2.24,0.59-2.54c0,0,2.3-4.56,4.05-9.61c0,0,1.45-3.95,2.08-6.87
	c1.02-4.76,2.15-9.46,2.61-12.74c0.06-1.29-0.33-0.89-0.71,0.2c-0.75,3.18-3.45,12.98-3.45,12.98c-2.4,7.21-5.58,14.19-9.45,20.75
	c-1.45,2.56-4.75,7.07-6.76,10.12c-0.16,0.24-0.32,0.46-0.5,0.68l-1.45,1.78c-8.37,10.36-18.72,19.01-30.69,24.84
	c0,0-1.01,0.46-2.13,0.97c-1,0.45-1.59,0.04-0.85-0.77c1.29-1.42,4.57-3.18,6.72-4.49c2.55-1.55,5.01-3.23,7.4-5.02
	c4.83-3.62,9.32-7.69,13.41-12.12c0.49-0.53,0.98-1.07,1.46-1.61l2.83-3.35c5.22-6.45,9.57-13.46,12.69-20.63
	c0.87-2.49,0.91-3.01,0.2-1.75c-1.91,4.43-4.17,8.73-6.75,12.85c-0.7,1.02-1.42,1.68,0.27-1.1c9.37-16.91,15.7-36.16,16.15-54.12
	c0.17-5.21-0.12-10.29-0.82-15.2l-0.8-4.66c-2.53-12.77-7.65-24.28-13.69-33.87c-1.02-1.48-1.36-1.15-1.06-0.54
	c0.57,1.07,1.13,2.15,1.67,3.25c0.79,1.46,3.07,5.81,4.77,11.03c0.55,1.67,2.55,7.57,3.77,14.98c0.07,0.37,0.14,0.84,0.21,1.33
	c0.15,1.01,0.29,2.05,0.4,3.11c0.02,0.32-0.18,0.86-0.42-0.04l-0.7-4.39l-0.38-2.08c-0.01-0.1-0.03-0.19-0.03-0.19
	c-0.6-2.71-1.56-6.27-3.04-10.07c-2.84-7.29-5.74-11.48-6.31-12.27c0,0-14.96-24.4-32.57-31.61c-0.88-0.36-0.33,0.09-0.09,0.26
	s6.43,4.35,6.43,4.35c9.89,6.91,17.53,16.28,17.53,16.28s5.07,6.47,9.56,14.29c1.41,2.46,2.54,4.72,3.41,6.67
	c1.48,4.28,0.5,3.69-0.02,2.45c-7.17-15.91-18.63-29.02-31.47-36.99c-8.43-5.38-20.79-11.58-34.11-13.95
	c-5.49-1.04-11.05-1.42-16.32-1.24l0.09-0.02c0,0-9.58,0.25-17.6,2.4c-3,0.97-2.65,1.14-1.69,1.16c0.57-0.12,4.91-0.99,10.77-1.71
	c0.5-0.04,1.34,0.3-1.26,0.94l-2.2,0.41c0,0-2.78,0.55-5.36,1.1c-2.92,0.67-5.63,1.31-9.39,2.48l-1.17,0.42
	c-13.96,5.9-25.79,12.44-36.1,23.88c-17.61,19.53-24.78,47.18-20.11,72.93c2.27,12.51,7.34,24.51,14.99,34.68
	c5.07,6.75,11.36,12.51,18.11,17.54c3.4,2.53,6.94,4.89,10.56,7.1c1.5,0.92,3.47,2.6,5.17,3.03c1.46,0.37,2.86,0.13,1.06-1.27
	l-7.43-5.47c-1.07-1.11-0.44-1.28,1.81-0.4c0.35,0.14,11.29,5.68,13.23,6.46c2.25,0.9,6.92,3.14,7.65,2.24
	c0.19-0.24,0.21-0.9-0.6-1.45c-0.83-0.57-0.99-1.38-0.19-1.17c1.69,0.52,3.21,0.98,3.81,1.15c0.61,0.17,3.81,1,3.81,1
	s-2.09-0.51-0.02,0c2.07,0.51,8.34,2.66,12.68,4.41c3.87,1.55,7.6,4.01,9.21,7.23c1.17,2.34,1.8,4.51,1.64,6.83
	c-0.26,3.79,0.26,3.26-0.55,6.62c0,0-0.22,1.87-0.31,2.49c-0.31,1.38-0.73,2.65-1.85,3.76c-3.18,3.15-4.27,3.39-4.27,3.39
	c-0.78,0.4-1.71,0.7-2.96,0.85c-2.44,0.32-10.1,0.47-12.52,0.56c-2.44,0.11-5.49-0.44-7.94-0.88c-2.72-0.49-6.18-1.51-8.85-2.36
	c-3.39-1.08-12.32-5.77-14.37-6.64c-1.13-0.47-9.51-4.23-9.51-4.23c-34.1-15.17-58.47-46.5-64.15-83.39
	c-0.96-6.25-1.38-12.55-1.2-18.79c-0.32-31.04,10.8-60.23,28.86-82.48c0.46-0.49,0.43,0.15-0.35,1.13c0,0-3.19,4.54-6.44,10.21
	c-1.98,3.78-3.72,7.59-5.23,11.36c-0.13,0.42,0.13,0.52,0.34,0.05c7.67-15.66,18.94-29.36,32.71-39.68c0.1-0.08,0.18-0.14,0.26-0.21
	c0.45-0.31,0.62-0.08-0.33,0.86l-0.2,0.15c-0.51,0.35-1.61,1.28-2.32,1.89c-5.01,3.99-10.91,10.19-12.11,11.48
	c-4.18,4.82-7.9,9.82-11.11,15.3c-0.85,1.47-1.63,2.94-2.38,4.42c-0.33,0.98-0.11,0.88,0.51,0c6.85-11.08,15.29-20.61,25.64-28.88
	l0.52-0.45c14.26-11.95,31.79-19.63,50.21-22.7c19.93-3.32,37.18-1.34,47.33,0.83c0,0,7.06,1.79,14.95,4.98
	c0.82,0.34,5.81,2.49,6.57,3.17c0.21,0.17,0.02,0.25-0.21,0.15c-9.94-4.84-18.95-7.01-29.7-8.61c-3.14-0.47-7.52-0.9-11.04-0.7
	c-1.58,0.12-2.15,0.39-1.51,0.46c0.46,0.02,1.8,0.02,1.8,0.02c5.83,0.2,11.39,1.49,16.85,2.89c2.94,0.64,8.48,2.49,8.48,2.49
	c0.59,0.2,0.98,0.59,0.06,0.39c-3-0.78-5.36-1.24-5.36-1.24c-10.15-2.08-19.53-2.86-25.88-2.11c-1.29,0.22-0.43,0.41-0.27,0.41
	c8.53,0,14.64,1.02,14.64,1.02c10.9,1.82,21.55,5.65,31.43,10.61c0.41,0.2,1.09,0.78-0.38,0.15c-7.21-3.56-15.87-6.32-20.54-7.47
	c-3.33-0.77-6.68-1.38-10.05-1.81l-4.49-0.48c-0.8-0.06-4.11-0.42-4.96-0.43c-0.56-0.01-1.12-0.04-1.68-0.1
	c-3.45-0.35-6.93-0.17-10.41-0.22c-0.38-0.01-0.76,0-1.13,0.02c-2.27,0.13-4.53,0.13-6.78,0.38c0,0-5.9,0.8-8.41,1.26
	c-1.07,0.17-1.54,0.38-1.54,0.38c-0.88,0.23,0.11,0.29,0.59,0.2l0.6-0.09c2.04-0.29,4.07-0.53,6.11-0.71
	c5.03-0.52,9.98-0.72,14.72-0.77c0,0,7.7,0.18,13.23,1.26c1.96,0.57,0.29,0.52-1.03,0.3c-1.58-0.25-3.4-0.38-4.97-0.45
	c-11.4-0.27-22.97,0.94-28.59,1.64c-0.88,0.11-1.76,0.25-2.63,0.43c-3.72,0.75-14.26,2.99-20.41,5.57l-1.47,0.63
	c-0.59,0.2-0.69,0.59-0.39,0.59l2.68-0.97c10.76-3.78,22.22-5.99,33.66-6.42c0,0,25.49-1.99,45.95,6.35
	c1.83,0.65,5.81,2.19,10.56,4.82c0.42,0.32,0.66,0.8-1.14-0.07l-0.88-0.42c-11.9-5.66-24.77-8.98-37.68-9.68
	c-0.92-0.05-1.84-0.07-2.76-0.09c0,0-5.03-0.17-8.16,0.03c-0.84,0.04-1.26,0.23-0.71,0.2c0.17,0,0.34-0.01,0.52-0.01
	c15.28-0.13,28.93,2.98,43.04,9.06c18.34,7.9,34.38,21.67,46.27,37.57l7.88,12.42c0.71,1.33,1.38,2.66,2.02,4.01l1.58,2.99
	c5.74,12.57,8.33,27.98,10.2,40.24c0.35,2.18,0.85,1.64,0.66-0.38l-0.35-3.05c-0.05-1.7-1.41-10.95-3.73-20.14
	c-0.05-0.15-1.61-6.58-2.94-10.2c-2.07-5.65-4.04-10.47-5.04-12.59c-1.44-2.75-3.09-6.62-4.67-9.19c-0.18-0.29-0.72-1.25-1.11-1.93
	c-3.07-5.47-13.21-18.18-13.21-18.18c-0.95-0.93-2.92-3.97-1.35-2.56c9.71,8.74,17.87,19.23,23.54,31.34
	c0.57,1.4,1.2,2.77,1.79,4.15c0.22,0.39,0.25,0.26,0.22,0c-2.12-6.11-4.72-12.15-7.78-17.96c-1.08-1.61-2.93-5.89-0.83-3.16
	C569.05,478.14,575.76,489.78,575.76,489.78z M446.61,429.33c8.32-2.41,17.92-3.56,26.68-3.83l1.57,0c0.55,0,1.11-0.16,0.08-0.33
	c-22.02-0.95-44.22,5.37-61.85,17.39c-0.83,0.54-1.62,1.11-2.43,1.69c-2.35,1.75-4.68,3.59-6.87,5.46
	c-2.19,1.87-15.02,13.77-21.67,25.5c-4.74,8.37-7.4,16.24-8.53,20.07c0,0.01-0.01,0.02-0.01,0.02c-0.15,1.01,0.52,1.03,0.91-0.34
	l0-0.01l0.03-0.05l3.35-8.08c6.2-13.83,14.77-24.51,20.35-30.58C408.54,446.3,423.97,435.89,446.61,429.33z M558.29,597.91
	c0.11-0.2,0.18-0.27,0.09-0.37c0,0-0.04-0.11-0.39,0.07c-0.4,0.21-0.88,0.97-1.19,1.33c-0.47,0.54-8.47,13.56-15.4,20.4
	c-1.53,1.51-2.13,2.07-1.85,2.07s0.84-0.28,2.04-1.42C545.17,616.56,551.5,610.17,558.29,597.91z"/>
</svg>
